Coordinates
version=1
nRows=8
nColumns=63
inDegrees=yes

Units are S.I. units (second, meters, Newtons, ...)
If the header above contains a line with 'inDegrees', this indicates whether rotational values are in degrees (yes) or radians (no).

endheader
time	pelvis_tilt	pelvis_list	pelvis_rotation	pelvis_tx	pelvis_ty	pelvis_tz	hip_flexion_r	hip_adduction_r	hip_rotation_r	knee_angle_r	knee_angle_r_beta	ankle_angle_r	subtalar_angle_r	mtp_angle_r	hip_flexion_l	hip_adduction_l	hip_rotation_l	knee_angle_l	knee_angle_l_beta	ankle_angle_l	subtalar_angle_l	mtp_angle_l	L5_S1_Flex_Ext	L5_S1_Lat_Bending	L5_S1_axial_rotation	L4_L5_Flex_Ext	L4_L5_Lat_Bending	L4_L5_axial_rotation	L3_L4_Flex_Ext	L3_L4_Lat_Bending	L3_L4_axial_rotation	L2_L3_Flex_Ext	L2_L3_Lat_Bending	L2_L3_axial_rotation	L1_L2_Flex_Ext	L1_L2_Lat_Bending	L1_L2_axial_rotation	L1_T12_Flex_Ext	L1_T12_Lat_Bending	L1_T12_axial_rotation	Abs_r3	Abs_r2	Abs_r1	Abs_t1	Abs_t2	neck_flexion	neck_bending	neck_rotation	arm_flex_r	arm_add_r	arm_rot_r	elbow_flex_r	pro_sup_r	wrist_flex_r	wrist_dev_r	arm_flex_l	arm_add_l	arm_rot_l	elbow_flex_l	pro_sup_l	wrist_flex_l	wrist_dev_l
0.000000	2.491813	-3.167436	93.149490	0.212796	0.795158	0.726931	5.129471	3.820575	3.666350	13.086231	0.228398	35.209353	-9.895157	0.000000	1.048211	-3.329144	27.330050	0.565299	0.009866	36.936314	-12.014668	0.000000	0.455771	0.551218	-1.382940	0.846411	0.733119	-1.469374	0.748785	1.340231	-1.469374	0.520900	1.340231	-1.210073	0.423229	1.124043	-1.123639	0.260427	0.853836	-1.037205	3.255523	6.235484	-7.691499	0.000000	0.000000	28.167322	2.095201	0.141820	27.135982	-13.086250	84.456913	49.740952	80.956539	1.486444	4.741314	9.636845	-11.396837	48.025286	53.013723	86.987362	-12.642784	-8.391264
0.019231	2.218476	-2.541733	93.425981	0.213754	0.796463	0.722423	3.758916	3.684200	3.895285	12.144109	0.211955	35.944595	-10.321988	0.000000	0.218373	-3.235689	26.323392	0.686539	0.011982	37.560278	-10.197622	0.000000	0.418872	0.461038	-1.432224	0.777888	0.613181	-1.521738	0.688165	1.120969	-1.521738	0.478729	1.120969	-1.253196	0.388965	0.940150	-1.163682	0.239344	0.714148	-1.074168	2.991963	5.215359	-7.965599	0.000000	0.000000	28.151515	2.990289	-1.638182	26.164789	-13.154613	84.248757	50.467082	74.963986	0.151742	2.704847	7.190526	-12.178959	45.187400	54.906206	87.952605	-12.179096	-9.809623
0.038462	1.995353	-2.044443	93.654684	0.214393	0.797467	0.718800	2.652329	3.564625	4.132951	11.361780	0.198300	36.550805	-10.694926	0.000000	-0.461716	-3.146466	25.681548	0.751876	0.013123	37.994390	-8.970067	0.000000	0.389262	0.388324	-1.471684	0.722899	0.516470	-1.563664	0.639519	0.944170	-1.563664	0.444888	0.944170	-1.287724	0.361469	0.791870	-1.195743	0.222425	0.601513	-1.103763	2.780463	4.392794	-8.185066	0.000000	0.000000	28.138431	3.772778	-3.025135	25.369040	-13.372339	84.193556	51.285217	68.354266	-0.429724	0.854580	5.045915	-12.833467	42.774276	56.764725	88.703483	-11.654136	-10.476969
0.057692	1.817184	-1.666557	93.838499	0.214743	0.798195	0.716000	1.793276	3.458927	4.375251	10.731523	0.187300	37.041073	-11.015400	0.000000	-0.999369	-3.059817	25.349661	0.770899	0.013455	38.262635	-8.252454	0.000000	0.366344	0.331498	-1.502033	0.680338	0.440893	-1.595911	0.601867	0.806005	-1.595911	0.418695	0.806005	-1.314279	0.340187	0.675991	-1.220402	0.209329	0.513491	-1.126525	2.616761	3.749976	-8.353860	0.000000	0.000000	28.127912	4.450346	-4.049355	24.733962	-13.716815	84.263424	52.183930	61.343779	-0.356623	-0.818093	3.180471	-13.371524	40.739937	58.584424	89.247653	-11.068655	-10.494405
0.076923	1.678707	-1.399065	93.980330	0.214836	0.798669	0.713961	1.165325	3.364181	4.618084	10.245617	0.178820	37.428493	-11.284835	0.000000	-1.401897	-2.974082	25.272878	0.753197	0.013146	38.388999	-7.965232	0.000000	0.349521	0.288988	-1.523983	0.649096	0.384354	-1.619232	0.574229	0.702644	-1.619232	0.399468	0.702644	-1.333486	0.324566	0.589304	-1.238237	0.199717	0.447642	-1.142988	2.496596	3.269086	-8.475939	0.000000	0.000000	28.119802	5.030668	-4.741157	24.244780	-14.165427	84.430478	53.151793	54.148923	0.272375	-2.321776	1.571655	-13.804291	39.038403	60.360447	89.592773	-10.423405	-9.963037
0.096154	1.574662	-1.232957	94.083079	0.214701	0.798916	0.712620	0.752041	3.277464	4.857352	9.896340	0.172724	37.726154	-11.504658	0.000000	-1.676610	-2.887604	25.396344	0.708358	0.012363	38.397466	-8.028851	0.000000	0.338197	0.259216	-1.538246	0.628066	0.344758	-1.634386	0.555624	0.630259	-1.634386	0.386525	0.630259	-1.345965	0.314050	0.528594	-1.249825	0.193246	0.401526	-1.153684	2.415708	2.932309	-8.555263	0.000000	0.000000	28.113943	5.521421	-5.130854	23.886722	-14.695562	84.666833	54.177378	46.986097	1.358599	-3.665073	0.196926	-14.142928	37.623697	62.087938	89.746497	-9.719138	-8.983970
0.115385	1.499786	-1.159223	94.149648	0.214369	0.798958	0.711914	0.536993	3.195851	5.088953	9.675971	0.168878	37.947149	-11.676296	0.000000	-1.830822	-2.798724	25.665204	0.645973	0.011274	38.312020	-8.363761	0.000000	0.331775	0.240610	-1.545533	0.616139	0.320011	-1.642129	0.545073	0.585019	-1.642129	0.379186	0.585019	-1.352341	0.308086	0.490652	-1.255746	0.189576	0.372705	-1.159150	2.369836	2.721829	-8.595791	0.000000	0.000000	28.110178	5.930280	-5.248762	23.645015	-15.284606	84.944605	55.249257	40.071701	2.803379	-4.856589	-0.966256	-14.398598	36.449839	63.762039	89.716482	-8.956607	-7.658311
0.134615	1.448821	-1.168853	94.182939	0.213870	0.798820	0.711782	0.503746	3.116418	5.308790	9.576788	0.167146	38.104569	-11.801174	0.000000	-1.871843	-2.705782	26.024604	0.575629	0.010047	38.156646	-8.890412	0.000000	0.329659	0.231593	-1.546556	0.612209	0.308019	-1.643216	0.541596	0.563096	-1.643216	0.376767	0.563096	-1.353237	0.306121	0.472265	-1.256577	0.188367	0.358738	-1.159917	2.354718	2.619829	-8.601482	0.000000	0.000000	28.108350	6.264921	-5.125196	23.504884	-15.909945	85.235908	56.356002	33.622132	4.508045	-5.904929	-1.940431	-14.582462	35.470852	65.377895	89.510386	-8.136564	-6.087162
